<svg width="27" height="26" viewBox="0 0 27 26" fill="none" xmlns="http://www.w3.org/2000/svg">
<path d="M24.3333 20.5833V23.8333H2.66667V20.5833C2.66667 19.9875 3.15417 19.5 3.75001 19.5H23.25C23.8458 19.5 24.3333 19.9875 24.3333 20.5833Z" fill="#A7AFBE" stroke="#A7AFBE" stroke-width="1.5" stroke-miterlimit="10" stroke-linecap="round" stroke-linejoin="round"/>
<path d="M8.08334 11.9167H5.91667V19.5H8.08334V11.9167Z" fill="#A7AFBE"/>
<path d="M12.4167 11.9167H10.25V19.5H12.4167V11.9167Z" fill="#A7AFBE"/>
<path d="M16.75 11.9167H14.5833V19.5H16.75V11.9167Z" fill="#A7AFBE"/>
<path d="M21.0833 11.9167H18.9167V19.5H21.0833V11.9167Z" fill="#A7AFBE"/>
<path d="M25.4167 24.6458H1.58333C1.13916 24.6458 0.770828 24.2775 0.770828 23.8333C0.770828 23.3892 1.13916 23.0208 1.58333 23.0208H25.4167C25.8608 23.0208 26.2292 23.3892 26.2292 23.8333C26.2292 24.2775 25.8608 24.6458 25.4167 24.6458Z" fill="#A7AFBE"/>
<path d="M23.6508 6.22916L13.9008 2.32916C13.6842 2.24249 13.3158 2.24249 13.0992 2.32916L3.34917 6.22916C2.97001 6.38083 2.66667 6.82499 2.66667 7.23666V10.8333C2.66667 11.4292 3.15417 11.9167 3.75001 11.9167H23.25C23.8458 11.9167 24.3333 11.4292 24.3333 10.8333V7.23666C24.3333 6.82499 24.03 6.38083 23.6508 6.22916ZM13.5 9.20833C12.6008 9.20833 11.875 8.48249 11.875 7.58333C11.875 6.68416 12.6008 5.95833 13.5 5.95833C14.3992 5.95833 15.125 6.68416 15.125 7.58333C15.125 8.48249 14.3992 9.20833 13.5 9.20833Z" fill="#A7AFBE"/>
</svg>
