<svg width="27" height="26" viewBox="0 0 27 26" fill="none" xmlns="http://www.w3.org/2000/svg">
<path d="M16.9883 7.09583H6.76166C6.45832 7.09583 6.17666 7.10666 5.91666 7.11749C3.34916 7.26916 2.66666 8.21166 2.66666 11.1367V11.765C2.66666 12.3608 3.15416 12.8483 3.74999 12.8483H20C20.5958 12.8483 21.0833 12.3608 21.0833 11.765V11.1367C21.0833 7.90832 20.26 7.09583 16.9883 7.09583Z" fill="#A7AFBE"/>
<path d="M3.74999 14.4733C3.15416 14.4733 2.66666 14.9608 2.66666 15.5567V18.7092C2.66666 21.9375 3.48999 22.75 6.76166 22.75H16.9883C20.2058 22.75 21.0508 21.97 21.0833 18.8825V15.5567C21.0833 14.9608 20.5958 14.4733 20 14.4733H3.74999ZM8.03999 20.1067H6.18749C5.74332 20.1067 5.37499 19.7383 5.37499 19.2942C5.37499 18.85 5.74332 18.4817 6.18749 18.4817H8.05082C8.49499 18.4817 8.86332 18.85 8.86332 19.2942C8.86332 19.7383 8.49499 20.1067 8.03999 20.1067ZM14.0958 20.1067H10.3692C9.92499 20.1067 9.55666 19.7383 9.55666 19.2942C9.55666 18.85 9.92499 18.4817 10.3692 18.4817H14.0958C14.54 18.4817 14.9083 18.85 14.9083 19.2942C14.9083 19.7383 14.5508 20.1067 14.0958 20.1067Z" fill="#A7AFBE"/>
<path d="M24.3333 14.4408V8.76416C24.3333 5.37333 22.3942 3.89999 19.4692 3.89999H9.79501C8.97167 3.89999 8.23501 4.01916 7.58501 4.26833C7.07584 4.45249 6.62084 4.72333 6.25251 5.08083C6.05751 5.26499 6.20917 5.56833 6.49084 5.56833H18.2667C20.7042 5.56833 22.6758 7.53999 22.6758 9.97749V17.745C22.6758 18.0158 22.9683 18.1675 23.1633 17.9725C23.9108 17.1817 24.3333 16.0225 24.3333 14.4408Z" fill="#A7AFBE"/>
</svg>
