<svg width="20" height="20" viewBox="0 0 20 20" fill="none" xmlns="http://www.w3.org/2000/svg">
<path d="M12.0833 5H6.25C5.55964 5 5 5.55964 5 6.25V15.4167C5 16.107 5.55964 16.6667 6.25 16.6667H12.0833C12.7737 16.6667 13.3333 16.107 13.3333 15.4167V6.25C13.3333 5.55964 12.7737 5 12.0833 5Z" fill="#8A95A8"/>
<path d="M6.7207 4.22024C6.83561 4.1854 6.95753 4.16668 7.08381 4.16668H12.9171C13.6075 4.16668 14.1671 4.72632 14.1671 5.41668V14.5833C14.1671 14.7096 14.1484 14.8315 14.1136 14.9464C14.6269 14.7909 15.0005 14.3141 15.0005 13.75V4.58334C15.0005 3.89299 14.4408 3.33334 13.7505 3.33334H7.91714C7.35308 3.33334 6.87627 3.70697 6.7207 4.22024Z" fill="#8A95A8"/>
</svg>
