<svg width="42" height="42" viewBox="0 0 42 42" fill="none" xmlns="http://www.w3.org/2000/svg">
<circle cx="20.7696" cy="20.7692" r="20.7692" fill="#EBD1FA"/>
<path d="M21.6351 23.3654C21.6351 23.8433 21.2476 24.2308 20.7697 24.2308C20.2917 24.2308 19.9043 23.8433 19.9043 23.3654C19.9043 22.8874 20.2917 22.5 20.7697 22.5C21.2476 22.5 21.6351 22.8874 21.6351 23.3654Z" stroke="#8013BF" stroke-width="2.30769"/>
<path d="M23.3658 18.1731C24.9975 18.1731 25.8134 18.1731 26.3204 18.68C26.8273 19.1869 26.8273 20.0028 26.8273 21.6346V23.3654V25.0961C26.8273 26.7279 26.8273 27.5438 26.3204 28.0507C25.8134 28.5577 24.9975 28.5577 23.3658 28.5577H20.7696H18.1735C16.5417 28.5577 15.7258 28.5577 15.2188 28.0507C14.7119 27.5438 14.7119 26.7279 14.7119 25.0961V23.3654V21.6346C14.7119 20.0028 14.7119 19.1869 15.2188 18.68C15.7258 18.1731 16.5417 18.1731 18.1735 18.1731H20.7696H23.3658Z" stroke="#8013BF" stroke-width="2.30769" stroke-linejoin="round"/>
<path d="M18.1735 18.1731V14.7115C18.1735 13.7557 18.9484 12.9808 19.9042 12.9808H21.6891C22.6151 12.9808 23.3658 13.7315 23.3658 14.6575V14.7115" stroke="#8013BF" stroke-width="2.30769" stroke-linecap="round" stroke-linejoin="round"/>
</svg>
