<svg width="27" height="26" viewBox="0 0 27 26" fill="none" xmlns="http://www.w3.org/2000/svg">
<path opacity="0.4" d="M11.4092 3.05501L3.90167 9.0675C3.05667 9.73916 2.515 11.1583 2.69917 12.22L4.14 20.8433C4.4 22.3817 5.87333 23.6275 7.43333 23.6275H19.5667C21.1158 23.6275 22.6 22.3708 22.86 20.8433L24.3008 12.22C24.4742 11.1583 23.9325 9.73916 23.0983 9.0675L15.5908 3.06582C14.4317 2.13415 12.5575 2.13418 11.4092 3.05501Z" fill="#8013BF"/>
<path d="M13.5 16.7917C14.9958 16.7917 16.2083 15.5791 16.2083 14.0833C16.2083 12.5876 14.9958 11.375 13.5 11.375C12.0042 11.375 10.7917 12.5876 10.7917 14.0833C10.7917 15.5791 12.0042 16.7917 13.5 16.7917Z" fill="#8013BF"/>
</svg>
