<svg width="22" height="22" viewBox="0 0 22 22" fill="none" xmlns="http://www.w3.org/2000/svg">
<path fill-rule="evenodd" clip-rule="evenodd" d="M11 1.83334C15.5563 1.83334 19.25 5.48692 19.25 9.99384C19.25 12.9762 16.7545 16.1295 11.8692 19.5646L11 20.1667L10.4755 19.8047C5.36288 16.2762 2.75 13.0456 2.75 9.99384C2.75 5.48692 6.44365 1.83334 11 1.83334ZM11 3.64679C7.45617 3.64679 4.58333 6.48846 4.58333 9.99384C4.58333 12.1961 6.68866 14.8834 11 17.95C15.3113 14.8834 17.4167 12.1961 17.4167 9.99384C17.4167 6.48846 14.5438 3.64679 11 3.64679ZM11 5.50001C13.025 5.50001 14.6667 7.14163 14.6667 9.16668C14.6667 11.1917 13.025 12.8333 11 12.8333C8.97496 12.8333 7.33333 11.1917 7.33333 9.16668C7.33333 7.14163 8.97496 5.50001 11 5.50001ZM11 7.33334C9.98748 7.33334 9.16667 8.15415 9.16667 9.16668C9.16667 10.1792 9.98748 11 11 11C12.0125 11 12.8333 10.1792 12.8333 9.16668C12.8333 8.15415 12.0125 7.33334 11 7.33334Z" fill="#353F50"/>
</svg>
