<svg width="20" height="20" viewBox="0 0 20 20" fill="none" xmlns="http://www.w3.org/2000/svg">
<path fill-rule="evenodd" clip-rule="evenodd" d="M5.83332 11.6667H6.66666C8.02977 11.6667 9.23999 12.3212 10.0002 13.3332C10.72 12.3745 11.8441 11.7366 13.1194 11.6721L13.3333 11.6667H14.1667C16.4678 11.6667 18.3333 13.5322 18.3333 15.8333C18.3333 16.2936 17.9602 16.6667 17.5 16.6667C17.0726 16.6667 16.7204 16.345 16.6723 15.9305L16.6624 15.6864C16.5892 14.4227 15.5773 13.4108 14.3136 13.3376L14.1667 13.3333H13.3333C11.9526 13.3333 10.8333 14.4526 10.8333 15.8333C10.8333 16.2607 10.5116 16.6129 10.0972 16.6611L9.99999 16.6667C9.57263 16.6667 9.2204 16.345 9.17226 15.9305L9.16241 15.6864C9.08919 14.4227 8.07729 13.4108 6.81355 13.3376L6.66666 13.3333H5.83332C4.45261 13.3333 3.33332 14.4526 3.33332 15.8333C3.33332 16.2936 2.96023 16.6667 2.49999 16.6667C2.03975 16.6667 1.66666 16.2936 1.66666 15.8333C1.66666 13.5927 3.43525 11.7652 5.65258 11.6705L5.83332 11.6667ZM5.83332 3.33334C7.67427 3.33334 9.16666 4.82573 9.16666 6.66668C9.16666 8.50763 7.67427 10 5.83332 10C3.99237 10 2.49999 8.50763 2.49999 6.66668C2.49999 4.82573 3.99237 3.33334 5.83332 3.33334ZM14.1667 3.33334C16.0076 3.33334 17.5 4.82573 17.5 6.66668C17.5 8.50763 16.0076 10 14.1667 10C12.3257 10 10.8333 8.50763 10.8333 6.66668C10.8333 4.82573 12.3257 3.33334 14.1667 3.33334ZM5.83332 5.00001C4.91285 5.00001 4.16666 5.7462 4.16666 6.66668C4.16666 7.58715 4.91285 8.33334 5.83332 8.33334C6.7538 8.33334 7.49999 7.58715 7.49999 6.66668C7.49999 5.7462 6.7538 5.00001 5.83332 5.00001ZM14.1667 5.00001C13.2462 5.00001 12.5 5.7462 12.5 6.66668C12.5 7.58715 13.2462 8.33334 14.1667 8.33334C15.0871 8.33334 15.8333 7.58715 15.8333 6.66668C15.8333 5.7462 15.0871 5.00001 14.1667 5.00001Z" fill="#353F50"/>
</svg>
