<svg width="9" height="11" viewBox="0 0 9 11" fill="none" xmlns="http://www.w3.org/2000/svg">
<path fill-rule="evenodd" clip-rule="evenodd" d="M8.45708 2.47104C8.45708 3.3622 7.73465 4.08463 6.84349 4.08463C6.42765 4.08463 6.04855 3.92733 5.76243 3.66898L3.33331 5.28841C3.36757 5.41925 3.3858 5.55663 3.3858 5.69821C3.3858 5.83979 3.36757 5.97718 3.33331 6.10802L5.50832 7.55803C5.79862 7.13113 6.28833 6.85078 6.84349 6.85078C7.73465 6.85078 8.45708 7.5732 8.45708 8.46436C8.45708 9.35553 7.73465 10.078 6.84349 10.078C5.95777 10.078 5.23871 9.36428 5.23 8.48064L2.85326 6.89614C2.56716 7.1545 2.18806 7.3118 1.77222 7.3118C0.881056 7.3118 0.15863 6.58938 0.15863 5.69821C0.15863 4.80705 0.881056 4.08463 1.77222 4.08463C2.18806 4.08463 2.56716 4.24193 2.85326 4.50027L5.28242 2.88084C5.24816 2.74998 5.2299 2.61264 5.2299 2.47104C5.2299 1.57988 5.95233 0.857452 6.84349 0.857452C7.73465 0.857452 8.45708 1.57988 8.45708 2.47104ZM6.84349 3.16258C7.2254 3.16258 7.53503 2.85297 7.53503 2.47104C7.53503 2.08911 7.2254 1.7795 6.84349 1.7795C6.46158 1.7795 6.15195 2.08911 6.15195 2.47104C6.15195 2.85297 6.46158 3.16258 6.84349 3.16258ZM1.77222 6.38975C2.15414 6.38975 2.46375 6.08013 2.46375 5.69821C2.46375 5.3163 2.15414 5.00668 1.77222 5.00668C1.39029 5.00668 1.08068 5.3163 1.08068 5.69821C1.08068 6.08013 1.39029 6.38975 1.77222 6.38975ZM7.53503 8.46436C7.53503 8.84628 7.2254 9.1559 6.84349 9.1559C6.46158 9.1559 6.15195 8.84628 6.15195 8.46436C6.15195 8.08245 6.46158 7.77283 6.84349 7.77283C7.2254 7.77283 7.53503 8.08245 7.53503 8.46436Z" fill="#2B313B"/>
</svg>
