<svg width="27" height="26" viewBox="0 0 27 26" fill="none" xmlns="http://www.w3.org/2000/svg">
<path d="M9.48083 6.81416C9.02583 6.81416 8.66833 6.44582 8.66833 6.00166V2.97916C8.66833 2.53499 9.02583 2.16666 9.48083 2.16666C9.93584 2.16666 10.2933 2.53499 10.2933 2.97916V5.99082C10.2933 6.44582 9.93584 6.81416 9.48083 6.81416Z" fill="#A7AFBE"/>
<path d="M17.5192 6.81416C17.0642 6.81416 16.7067 6.44582 16.7067 6.00166V2.97916C16.7067 2.52416 17.075 2.16666 17.5192 2.16666C17.9742 2.16666 18.3317 2.53499 18.3317 2.97916V5.99082C18.3317 6.44582 17.9742 6.81416 17.5192 6.81416Z" fill="#A7AFBE"/>
<path d="M23.7917 17.1383C23.7917 17.3008 23.7375 17.4633 23.5967 17.6042C22.0258 19.1858 19.2308 22.0025 17.6275 23.6167C17.4867 23.7683 17.3025 23.8333 17.1183 23.8333C16.7608 23.8333 16.4142 23.5517 16.4142 23.14V19.3483C16.4142 17.7667 17.7575 16.4558 19.4042 16.4558C20.4333 16.445 21.8633 16.445 23.0875 16.445C23.51 16.445 23.7917 16.7808 23.7917 17.1383Z" fill="#A7AFBE"/>
<path d="M23.7917 17.1383C23.7917 17.3008 23.7375 17.4633 23.5967 17.6042C22.0258 19.1858 19.2308 22.0025 17.6275 23.6167C17.4867 23.7683 17.3025 23.8333 17.1183 23.8333C16.7608 23.8333 16.4142 23.5517 16.4142 23.14V19.3483C16.4142 17.7667 17.7575 16.4558 19.4042 16.4558C20.4333 16.445 21.8633 16.445 23.0875 16.445C23.51 16.445 23.7917 16.7808 23.7917 17.1383Z" fill="#A7AFBE"/>
<path d="M21.7008 4.87499C20.9858 4.34416 19.9567 4.85332 19.9567 5.75249V5.86082C19.9567 7.12832 19.0467 8.29832 17.7792 8.42832C16.3167 8.57999 15.0817 7.43166 15.0817 6.00166V4.87499C15.0817 4.27916 14.5942 3.79166 13.9983 3.79166H13.0017C12.4058 3.79166 11.9183 4.27916 11.9183 4.87499V5.86082C11.9183 6.81416 11.4092 7.70249 10.6183 8.13582C10.575 8.16832 10.5317 8.18999 10.4883 8.21166C10.4775 8.21166 10.4775 8.22249 10.4667 8.22249C10.3908 8.25499 10.315 8.28749 10.2283 8.31999C10.2067 8.33082 10.185 8.33082 10.1633 8.34166C10.0333 8.38499 9.8925 8.41749 9.74084 8.42832H9.73C9.5675 8.44999 9.39417 8.44999 9.23167 8.42832H9.22084C9.06917 8.41749 8.92834 8.38499 8.79834 8.34166C8.69 8.30916 8.58167 8.26582 8.47334 8.21166C7.62834 7.83249 7.04334 6.98749 7.04334 6.00166V5.75249C7.04334 4.91832 6.155 4.41999 5.45084 4.77749C5.44 4.78832 5.42917 4.78832 5.41834 4.79916H5.4075C5.33167 4.85332 5.26667 4.90749 5.19084 4.96166C5.07167 5.05916 4.9525 5.15666 4.84417 5.26499C4.76834 5.34082 4.6925 5.41666 4.6275 5.49249C4.54084 5.57916 4.465 5.66582 4.38917 5.76332C4.335 5.82832 4.27 5.89332 4.22667 5.96916C4.1725 6.03416 4.12917 6.10999 4.08584 6.17499C4.075 6.18582 4.06417 6.19666 4.05334 6.21832C3.95584 6.35916 3.86917 6.52166 3.79334 6.67332C3.77167 6.69499 3.76084 6.70582 3.76084 6.72749C3.69584 6.85749 3.63084 6.98749 3.5875 7.12832C3.555 7.18249 3.54417 7.22582 3.5225 7.27999C3.50084 7.32332 3.49 7.37749 3.46834 7.42082C3.43584 7.52916 3.40334 7.64832 3.37084 7.76749C3.3275 7.91916 3.295 8.08166 3.27334 8.24416C3.25167 8.36332 3.24084 8.48249 3.23 8.61249C3.21917 8.76416 3.20834 8.91582 3.20834 9.06749V18.5575C3.20834 21.4717 5.57 23.8333 8.48417 23.8333H13.7058C14.3017 23.8333 14.7892 23.3458 14.7892 22.75V19.3483C14.7892 16.8567 16.8583 14.8308 19.4042 14.8308C19.9783 14.82 21.3758 14.82 22.7083 14.82C23.3042 14.82 23.7917 14.3325 23.7917 13.7367V9.06749C23.7917 7.34499 22.9683 5.83916 21.7008 4.87499ZM12.5575 17.2358C12.46 17.5608 12.1567 17.7883 11.7992 17.7883H7.85584C7.80167 17.7883 7.75834 17.7883 7.715 17.7667C7.325 17.7125 7.04334 17.3767 7.04334 16.9758C7.04334 16.5208 7.40084 16.1525 7.85584 16.1525H11.7992C12.2433 16.1525 12.6117 16.5208 12.6117 16.9758C12.6117 17.0625 12.6008 17.16 12.5575 17.2358ZM15.5692 13.2167C15.4717 13.5417 15.1683 13.7692 14.8108 13.7692H7.85584C7.80167 13.7692 7.75834 13.7692 7.715 13.7475C7.325 13.6933 7.04334 13.3575 7.04334 12.9567C7.04334 12.5017 7.40084 12.1333 7.85584 12.1333H14.8108C15.2658 12.1333 15.6233 12.5017 15.6233 12.9567C15.6233 13.0433 15.6125 13.1408 15.5692 13.2167Z" fill="#A7AFBE"/>
</svg>
