<svg width="40" height="40" viewBox="0 0 40 40" fill="none" xmlns="http://www.w3.org/2000/svg">
<circle cx="20" cy="20" r="20" fill="#FCDDEC"/>
<g clip-path="url(#clip0_21_1027)">
<path d="M24.8289 21.5824C25.2776 21.5824 25.6414 21.9462 25.6414 22.3949C25.6414 22.8172 25.3192 23.1643 24.9071 23.2037L24.8289 23.2074H18.1238L18.9034 23.987C19.2207 24.3043 19.2207 24.8188 18.9034 25.1361C18.606 25.4336 18.1352 25.4521 17.8161 25.1919L17.7544 25.1361L15.6802 23.0619C15.1524 22.5341 15.4961 21.6442 16.2171 21.5855L16.293 21.5824H24.8289ZM22.0877 15.8621C22.3852 15.5646 22.8559 15.546 23.1751 15.8063L23.2368 15.8621L25.3109 17.9363C25.8387 18.464 25.495 19.3539 24.774 19.4127L24.6981 19.4158H16.1622C15.7135 19.4158 15.3497 19.052 15.3497 18.6033C15.3497 18.1809 15.672 17.8338 16.084 17.7945L16.1622 17.7908H22.8674L22.0877 17.0111C21.7704 16.6938 21.7704 16.1794 22.0877 15.8621Z" fill="#93094C"/>
</g>
<defs>
<clipPath id="clip0_21_1027">
<rect width="13" height="13" fill="white" transform="translate(14 14)"/>
</clipPath>
</defs>
</svg>
